<svg width="80" height="80" viewBox="0 0 80 80" fill="none" xmlns="http://www.w3.org/2000/svg">
<rect width="80" height="80" rx="5" fill="#28282B"/>
<path d="M12 19.1136C11.4477 19.1136 11 18.6659 11 18.1136V12C11 11.4477 11.4477 11 12 11H48.2273C48.7796 11 49.2273 11.4477 49.2273 12V18.1136C49.2273 18.6659 48.7796 19.1136 48.2273 19.1136H35.9773C35.425 19.1136 34.9773 19.5614 34.9773 20.1136V56.5455C34.9773 57.0977 34.5296 57.5455 33.9773 57.5455H26.25C25.6977 57.5455 25.25 57.0977 25.25 56.5455V20.1136C25.25 19.5614 24.8023 19.1136 24.25 19.1136H12Z" fill="white"/>
<path d="M39 68.5455C38.4477 68.5455 38 68.0977 38 67.5455V23C38 22.4477 38.4477 22 39 22H67.8182C68.3705 22 68.8182 22.4477 68.8182 23V29.1136C68.8182 29.6659 68.3705 30.1136 67.8182 30.1136H48.8409C48.2886 30.1136 47.8409 30.5614 47.8409 31.1136V40.2045C47.8409 40.7568 48.2886 41.2045 48.8409 41.2045H65.7727C66.325 41.2045 66.7727 41.6523 66.7727 42.2045V48.3182C66.7727 48.8705 66.325 49.3182 65.7727 49.3182H48.8409C48.2886 49.3182 47.8409 49.7659 47.8409 50.3182V67.5455C47.8409 68.0977 47.3932 68.5455 46.8409 68.5455H39Z" fill="#FFC000"/>
</svg>
